# xmcd
#
# Track frame offsets:
#	150
#	18575
#	38175
#	52062
#	67587
#	84170
#	101037
#	117355
#	129987
#	145900
#	160230
#	177450
#	197925
#	210807
#	222462
#	238805
#
# Disc length: 3452 seconds
#
# Revision: 1
# Processed by: cddbd v1.4PL0 Copyright (c) Steve Scherf et al.
# Submitted via: audiograbber 1.81.03
#
DISCID=e30d7a10
DTITLE=Nashville Session Singers - Everybody's Line Dancing
DYEAR=1900
DGENRE=Country
TTITLE0=Everybody's Line Dancing' (Country)
TTITLE1=Runnin' Man Cowhand
TTITLE2=Country Stroll
TTITLE3=Wild Wild West
TTITLE4=Lady In Red
TTITLE5=Dancin' In The Moonlight
TTITLE6=Saturday Night's Callin'
TTITLE7=Life Begins At Five
TTITLE8=Oh Girl
TTITLE9=That's My Story
TTITLE10=My Love
TTITLE11=John Deere Green
TTITLE12=I'm In A Hurry ( And Don't Know Why)
TTITLE13=I Want You Bad ( And That Ain't Good)
TTITLE14=Mercury Blues
TTITLE15=Everybody's Line Dancin' (Techno)
EXTD=
EXTT0=
EXTT1=
EXTT2=
EXTT3=
EXTT4=
EXTT5=
EXTT6=
EXTT7=
EXTT8=
EXTT9=
EXTT10=
EXTT11=
EXTT12=
EXTT13=
EXTT14=
EXTT15=
PLAYORDER=
